<svg xmlns="http://www.w3.org/2000/svg" xmlns:xlink="http://www.w3.org/1999/xlink" viewBox="0 0 187.78 166.1"><defs><style>.cls-1,.cls-4{fill:none;}.cls-2{clip-path:url(#clip-path);}.cls-3{fill:#0c1a38;}.cls-4{stroke:#0c1a38;stroke-linecap:round;stroke-miterlimit:10;stroke-width:1.68px;}.cls-5{isolation:isolate;}</style><clipPath id="clip-path" transform="translate(-0.06)"><rect class="cls-1" y="0.1" width="187.8" height="166"/></clipPath></defs><title>guarantee</title><g id="Layer_2" data-name="Layer 2"><g id="Layer_1-2" data-name="Layer 1"><g class="cls-2"><path class="cls-3" d="M53.4,53.6l-9.2-3.5v.1c1.6,1.1,2.6,1.8,3.1,2.2l4.4,3.4-1.4,1.8-9.4-7.4L43,47.5l8.9,3.4h0l-5.3-8,2.1-2.7,9.4,7.4-1.3,1.8-4.4-3.5c-.2-.2-.5-.4-.7-.6a26.66,26.66,0,0,1-2.1-1.8v.1l5.5,8.2Z" transform="translate(-0.06)"/></g><g class="cls-2"><path class="cls-3" d="M64.9,35.1a6.21,6.21,0,0,1,1.5,4.6,5.72,5.72,0,0,1-2.5,3.8,5.25,5.25,0,0,1-4.3,1.2,6.35,6.35,0,0,1-3.9-2.9,6.67,6.67,0,0,1-1.5-4.6,5.72,5.72,0,0,1,2.5-3.8A5.25,5.25,0,0,1,61,32.2,7.43,7.43,0,0,1,64.9,35.1Zm-7.1,5.2a5.33,5.33,0,0,0,2.4,2,2.7,2.7,0,0,0,2.4-.5c1.6-1.2,1.6-2.9.1-5.1s-3.2-2.7-4.8-1.5a2.63,2.63,0,0,0-1.2,2.2A4.41,4.41,0,0,0,57.8,40.3Z" transform="translate(-0.06)"/></g><g class="cls-2"><path class="cls-3" d="M79.5,35.3l-3,1.2-8.2-6.4h-.1a29.24,29.24,0,0,1,1.4,3.1l2.1,5.2-2.1.9L65.1,28.2l3-1.2,8.2,6.4h.1c-.7-1.4-1.1-2.4-1.4-3l-2.1-5.2,2.1-.9Z" transform="translate(-0.06)"/></g><g class="cls-2"><path class="cls-3" d="M88.2,33.8,81.4,35l-2-11.8L86.2,22l.4,2-4.3.7.4,2.6,4-.7.4,2-4,.7.5,3,4.3-.7Z" transform="translate(-0.06)"/></g><g class="cls-2"><path class="cls-3" d="M94,26.7l2.6-4.9h2.7L95.2,29l-.1,4.7H92.6l.1-4.6-3.8-7.5h2.8Z" transform="translate(-0.06)"/></g><g class="cls-2"><path class="cls-3" d="M106.9,23.2l3.6,1.1a7.15,7.15,0,0,1,3.3,1.8,2.45,2.45,0,0,1,.4,2.5,2.38,2.38,0,0,1-1,1.5,2.15,2.15,0,0,1-1.5.4v.1A2.5,2.5,0,0,1,113,32a2.53,2.53,0,0,1-.1,1.9A3.07,3.07,0,0,1,111,36a5.28,5.28,0,0,1-3.3,0l-4.3-1.3Zm.4,7.2-.9,3,1.6.5a3,3,0,0,0,1.6.1,1.37,1.37,0,0,0,.8-1c.3-1-.2-1.6-1.6-2Zm.6-2,1.4.4a2.7,2.7,0,0,0,1.5.1c.4-.1.6-.4.7-.9a1.09,1.09,0,0,0-.2-1.1,3,3,0,0,0-1.4-.7l-1.3-.4Z" transform="translate(-0.06)"/></g><g class="cls-2"><path class="cls-3" d="M119.6,41.4l.6-2.9-3.8-2.1-2.1,2.1-2.4-1.3,9.5-8.5,2.7,1.5L122,42.8Zm1.2-5.1c.5-2.6.9-4.1.9-4.5s.1-.6.2-.8c-.5.5-1.8,1.8-3.9,3.8Z" transform="translate(-0.06)"/></g><g class="cls-2"><path class="cls-3" d="M132.6,38.7a2.63,2.63,0,0,0-2.4-.6,4.57,4.57,0,0,0-2.5,1.8c-1.7,2-1.8,3.7-.3,5a13,13,0,0,0,2.7,1.5L128.7,48a7.9,7.9,0,0,1-2.9-1.7,5,5,0,0,1-2-3.8,6.8,6.8,0,0,1,1.9-4.4,7.91,7.91,0,0,1,2.6-2,5.86,5.86,0,0,1,2.9-.4,5.72,5.72,0,0,1,2.8,1.4,7.75,7.75,0,0,1,2.1,2.9l-2,1a5.39,5.39,0,0,0-.7-1.3A3.92,3.92,0,0,0,132.6,38.7Z" transform="translate(-0.06)"/></g><g class="cls-2"><path class="cls-3" d="M135.3,57l-1.8-2.3,2-5.6-1.3-.4-3.4,2.6-1.6-2,9.4-7.4,1.6,2-4.3,3.4,1.7-.1h5.2l1.7,2.2h-6.7Z" transform="translate(-0.06)"/></g><g class="cls-2"><path class="cls-3" d="M41.9,104l2.4,3.2,4-.1L46,110.4l1.4,3.8L43.6,113l-3.2,2.5v-4l-3.3-2.2,3.8-1.3Z" transform="translate(-0.06)"/></g><g class="cls-2"><path class="cls-3" d="M52.5,123.1l3.3,3.4-4.4,4.4a15.73,15.73,0,0,1-1.9-1.2,20,20,0,0,1-1.6-1.4,5.14,5.14,0,0,1-1.8-4.1,6.39,6.39,0,0,1,2.3-4.2,6,6,0,0,1,4.4-2,6.1,6.1,0,0,1,4.4,2.1,9.85,9.85,0,0,1,2,3l-2,.8a7.22,7.22,0,0,0-1.4-2.4,3.56,3.56,0,0,0-2.6-1.1,4,4,0,0,0-2.8,1.4,5.53,5.53,0,0,0-1.6,2.7,2.82,2.82,0,0,0,.9,2.4,10.59,10.59,0,0,0,1.2,1l1.8-1.8-1.6-1.6Z" transform="translate(-0.06)"/></g><g class="cls-2"><path class="cls-3" d="M69.4,129.4l-4.2,6.5a4.55,4.55,0,0,1-1.8,1.6,4.31,4.31,0,0,1-2.3.4,5.28,5.28,0,0,1-2.5-1,5.06,5.06,0,0,1-2.4-2.9,3.92,3.92,0,0,1,.7-3.4l4.1-6.5,2.1,1.4-3.9,6.2a2.86,2.86,0,0,0-.6,2,2.17,2.17,0,0,0,1.2,1.5,2.31,2.31,0,0,0,1.9.4,3.36,3.36,0,0,0,1.6-1.4l3.9-6.2Z" transform="translate(-0.06)"/></g><g class="cls-2"><path class="cls-3" d="M74,144l.2-3-4.1-1.5-1.8,2.4-2.6-.9,8.1-9.8,2.9,1.1L76.6,145Zm.3-5.2c.1-2.7.2-4.2.2-4.6a1.72,1.72,0,0,1,.1-.8c-.4.6-1.5,2-3.2,4.3Z" transform="translate(-0.06)"/></g><g class="cls-2"><path class="cls-3" d="M83.3,141.5l-.6,4.5-2.5-.4,1.7-11.9,3.5.5a6,6,0,0,1,3.5,1.4,3,3,0,0,1,.8,2.8,3.7,3.7,0,0,1-.8,1.8,4,4,0,0,1-1.8,1c1.4,2.9,2.3,4.8,2.8,5.7l-2.8-.4-2.2-4.9Zm.3-2.1.8.1a3.35,3.35,0,0,0,1.8-.1,1.27,1.27,0,0,0,.7-1.2,1.39,1.39,0,0,0-.4-1.3,3.37,3.37,0,0,0-1.7-.6l-.8-.1Z" transform="translate(-0.06)"/></g><g class="cls-2"><path class="cls-3" d="M101.4,146.4l-1.1-2.8L96,144l-.6,2.9-2.7.2,3.2-12.3,3.1-.3,5.2,11.6Zm-1.8-4.9c-1-2.5-1.6-3.9-1.7-4.3a6.89,6.89,0,0,0-.3-.8c-.1.7-.5,2.5-1.1,5.3Z" transform="translate(-0.06)"/></g><g class="cls-2"><path class="cls-3" d="M118.1,142l-3.1,1-7.8-7h-.1c.6,1.5,1,2.6,1.2,3.2l1.8,5.3-2.2.7-3.7-11.4,3-1,7.7,6.9h.1c-.6-1.5-.9-2.5-1.2-3.1l-1.8-5.4,2.2-.7Z" transform="translate(-0.06)"/></g><g class="cls-2"><path class="cls-3" d="M126.5,137.4l-2.2,1.3-5-8.5-2.8,1.7-1.1-1.8,7.8-4.6,1.1,1.8-2.8,1.7Z" transform="translate(-0.06)"/></g><g class="cls-2"><path class="cls-3" d="M137.2,129.2l-5.2,4.5-7.8-9.1,5.2-4.5,1.4,1.6-3.3,2.8,1.7,2,3.1-2.6,1.4,1.6-3.1,2.6,2,2.3,3.3-2.8Z" transform="translate(-0.06)"/></g><g class="cls-2"><path class="cls-3" d="M144.4,121l-4.4,5.3-9.2-7.7,4.4-5.3,1.6,1.3-2.8,3.3,2,1.7,2.6-3.1,1.6,1.3-2.6,3.1,2.4,2,2.8-3.3Z" transform="translate(-0.06)"/></g><g class="cls-2"><path class="cls-3" d="M138.9,113.9l1.4-3.8-2.4-3.3,4,.1,2.4-3.2,1.1,3.9,3.8,1.3-3.3,2.3v4l-3.2-2.5Z" transform="translate(-0.06)"/></g><g class="cls-2"><path class="cls-3" d="M98.5,81.9c0,4.1-1.2,7.2-3.5,9.4s-5.7,3.3-10.1,3.3h-7V69.8h7.8c4,0,7.2,1.1,9.4,3.2A11.82,11.82,0,0,1,98.5,81.9Zm-5.5.2c0-5.3-2.4-8-7.1-8H83.1V90.2h2.3C90.5,90.2,93,87.5,93,82.1Z" transform="translate(-0.06)"/></g><g class="cls-2"><path class="cls-3" d="M116.9,94.6l-1.8-5.9h-9l-1.8,5.9H98.6l8.7-24.9h6.4l8.8,24.9Zm-3-10.3c-1.7-5.3-2.6-8.4-2.8-9.1a7.93,7.93,0,0,1-.4-1.7c-.4,1.4-1.4,5-3.2,10.7C107.4,84.3,113.9,84.3,113.9,84.3Z" transform="translate(-0.06)"/></g><g class="cls-2"><path class="cls-3" d="M129.2,80l5.2-10.2h5.7l-8.3,15.1v9.6h-5.2V85l-8.2-15.3h5.7Z" transform="translate(-0.06)"/><path class="cls-3" d="M156.6,87.7a6.51,6.51,0,0,1-2.4,5.3,10.47,10.47,0,0,1-6.7,1.9,15.66,15.66,0,0,1-7-1.5V88.5a41.48,41.48,0,0,0,4.2,1.6,13.18,13.18,0,0,0,3.2.5,4.33,4.33,0,0,0,2.7-.7,2.26,2.26,0,0,0,.9-2,2,2,0,0,0-.4-1.3,6.53,6.53,0,0,0-1.2-1.1,25.37,25.37,0,0,0-3.2-1.7,14.36,14.36,0,0,1-3.4-2.1,6.57,6.57,0,0,1-1.8-2.3,6.17,6.17,0,0,1-.7-3.1,6.45,6.45,0,0,1,2.2-5.2,9,9,0,0,1,6.2-1.9,15,15,0,0,1,3.7.5,20.53,20.53,0,0,1,3.7,1.3l-1.7,4.1a25.27,25.27,0,0,0-3.3-1.1,11.53,11.53,0,0,0-2.6-.3,3.17,3.17,0,0,0-2.3.7,2.5,2.5,0,0,0-.8,1.8,2.13,2.13,0,0,0,.3,1.2,4.71,4.71,0,0,0,1,1c.5.3,1.6.9,3.3,1.7a14.1,14.1,0,0,1,4.8,3.3A7.27,7.27,0,0,1,156.6,87.7Z" transform="translate(-0.06)"/></g><g class="cls-2"><line class="cls-4" x1="0.84" y1="62.2" x2="186.94" y2="62.2"/></g><g class="cls-2"><line class="cls-4" x1="0.84" y1="102.5" x2="186.94" y2="102.5"/></g><path class="cls-3" d="M17.8,63a77.93,77.93,0,0,1,150.6-.1h5.2a83,83,0,0,0-161,0l5.2.1Z" transform="translate(-0.06)"/><path class="cls-3" d="M168.4,103.2a77.95,77.95,0,0,1-150.6,0H12.6a83,83,0,0,0,161,0Z" transform="translate(-0.06)"/><path class="cls-3" d="M62.2,63A36.82,36.82,0,0,1,124,63h2a38.61,38.61,0,0,0-65.8,0Z" transform="translate(-0.06)"/><path class="cls-3" d="M124,103.2a36.82,36.82,0,0,1-61.8,0h-2a38.61,38.61,0,0,0,65.8,0Z" transform="translate(-0.06)"/><path class="cls-3" d="M163.1,103.2a72.84,72.84,0,0,1-140,0H21.4a74.45,74.45,0,0,0,143.4,0Z" transform="translate(-0.06)"/><path class="cls-3" d="M23.1,63a72.84,72.84,0,0,1,140,0h1.7A74.45,74.45,0,0,0,21.4,63Z" transform="translate(-0.06)"/><g class="cls-5"><path class="cls-3" d="M22.6,88.2l4.7-.4c.1,2.9,1.1,4.3,3.2,4.3a2.9,2.9,0,0,0,2.3-1,4.06,4.06,0,0,0,1-2.7,3.92,3.92,0,0,0-.9-2.6,3.25,3.25,0,0,0-2.6-1H29.2V80.7a4.14,4.14,0,0,0,3-.9,3.17,3.17,0,0,0,.9-2.3,2.72,2.72,0,0,0-.7-2,2.56,2.56,0,0,0-1.9-.8c-1.7,0-2.6,1.1-2.6,3.2l-4.6-.4a6.75,6.75,0,0,1,2.2-5.1,7.74,7.74,0,0,1,5.3-1.8,8.51,8.51,0,0,1,5.6,1.7,5.9,5.9,0,0,1,2,4.7,5.79,5.79,0,0,1-3.7,5.6c3,1,4.5,2.9,4.5,5.8a6.8,6.8,0,0,1-2.3,5.4,8.77,8.77,0,0,1-5.9,2C25.8,96,23,93.4,22.6,88.2Z" transform="translate(-0.06)"/><path class="cls-3" d="M51.1,96a7,7,0,0,1-6.2-3.2c-1.4-2.1-2.2-5.4-2.2-9.4s.7-7.1,2.1-9.3a7,7,0,0,1,6.3-3.3,7,7,0,0,1,6.3,3.3q2.1,3.3,2.1,9.3c0,4.1-.7,7.2-2.2,9.4A7,7,0,0,1,51.1,96Zm0-4c1.3,0,2-1,2.4-3a28.36,28.36,0,0,0,.5-5.6,20.89,20.89,0,0,0-.7-6.4c-.5-1.4-1.2-2.2-2.2-2.2s-1.7.7-2.2,2.2a21.32,21.32,0,0,0-.7,6.4,20.89,20.89,0,0,0,.7,6.4C49.4,91.2,50.1,92,51.1,92Z" transform="translate(-0.06)"/></g></g></g></svg>